<svg width="1920" height="1080" viewBox="0 0 1920 1080" fill="none" xmlns="http://www.w3.org/2000/svg">
  <rect width="1920" height="1080" fill="#FFFFF0"/>
  <rect x="96" y="88" width="1728" height="904" rx="36" fill="#050505"/>
  <rect x="132" y="124" width="1656" height="832" rx="22" stroke="#FFFFF0" stroke-opacity=".13"/>
  <defs>
    <mask id="gate-cut-main" maskUnits="userSpaceOnUse" x="0" y="0" width="150" height="150">
      <rect width="150" height="150" fill="white"/>
      <rect x="42" y="58" width="44" height="34" rx="17" fill="black"/>
      <rect x="64" y="58" width="44" height="34" rx="17" fill="black"/>
    </mask>
    <g id="mark-color">
      <g mask="url(#gate-cut-main)" fill="#FFFFF0">
        <rect x="18" y="42" width="84" height="66" rx="33"/>
        <rect x="48" y="42" width="84" height="66" rx="33"/>
      </g>
      <path d="M63 75H87" stroke="#FF7F50" stroke-width="5" stroke-linecap="round"/>
      <circle cx="75" cy="75" r="3" fill="#FF7F50"/>
    </g>
    <g id="mark-dark">
      <g mask="url(#gate-cut-main)" fill="#050505">
        <rect x="18" y="42" width="84" height="66" rx="33"/>
        <rect x="48" y="42" width="84" height="66" rx="33"/>
      </g>
    </g>
  </defs>
  <text x="170" y="198" fill="#FFFFF0" font-family="Inter, Geist, Arial, sans-serif" font-size="18" font-weight="700" letter-spacing="5">ZEROHUMAN / SIGNED GATE</text>
  <text x="170" y="256" fill="#FFFFF0" font-family="Inter, Geist, Arial, sans-serif" font-size="82" font-weight="850" letter-spacing="-2">Verified capability.</text>
  <text x="170" y="332" fill="#C0C0C0" font-family="Inter, Geist, Arial, sans-serif" font-size="30" font-weight="500">Two operational bodies. One governed threshold. Every run leaves proof.</text>
  <g transform="translate(230 392) scale(3.8)">
    <use href="#mark-color"/>
  </g>
  <g transform="translate(965 418)">
    <rect x="0" y="0" width="620" height="176" rx="26" fill="#FFFFF0"/>
    <g transform="translate(30 13) scale(1)">
      <use href="#mark-dark"/>
    </g>
    <text x="196" y="102" fill="#050505" font-family="Inter, Geist, Arial, sans-serif" font-size="58" font-weight="850" letter-spacing="-1.5">ZeroHuman</text>
    <text x="199" y="134" fill="#36454F" font-family="Inter, Geist, Arial, sans-serif" font-size="15" font-weight="800" letter-spacing="4">STRUCTURED AI OPERATIONS</text>
  </g>
  <g transform="translate(965 666)">
    <rect x="0" y="0" width="146" height="146" rx="32" fill="#FFFFF0"/>
    <g transform="translate(-2 -2) scale(1)">
      <use href="#mark-dark"/>
    </g>
    <rect x="184" y="0" width="146" height="146" rx="32" fill="#36454F"/>
    <g transform="translate(182 -2) scale(1)">
      <use href="#mark-color"/>
    </g>
    <rect x="368" y="0" width="146" height="146" rx="32" fill="#FF7F50"/>
    <g transform="translate(366 -2) scale(1)">
      <use href="#mark-dark"/>
    </g>
  </g>
  <text x="170" y="890" fill="#C0C0C0" font-family="Inter, Geist, Arial, sans-serif" font-size="16" font-weight="700" letter-spacing="4">OBSIDIAN #050505 / IVORY #FFFFF0 / CORAL #FF7F50 / CHARCOAL #36454F / SILVER #C0C0C0</text>
</svg>
